<svg xmlns="http://www.w3.org/2000/svg" width="17" height="25" viewBox="0 0 17 25" id="svg-1"><defs id="defs-2"><style id="style-3">
	.cls-1 { fill-rule: evenodd; }
</style></defs><path id="adress.svg" class="cls-1" d="M1206.5 383a8.607 8.607.0 0 0-8.5 8.7c0 2.279 1.39 5.7 4.12 10.159 2.02 3.294 4.07 5.973 4.09 6a.37.37.0 0 0 .29.146h0a.356.356.0 0 0 .29-.147c.02-.027 2.07-2.732 4.09-6.04 2.73-4.48 4.12-7.884 4.12-10.117A8.607 8.607.0 0 0 1206.5 383zm0 12.889a4.195 4.195.0 1 1 4.1-4.193A4.152 4.152.0 0 1 1206.5 395.889z" transform="translate(-1198 -383)" fill="#de3e46" fill-opacity="1" type="solidColor"></path></svg>