<svg xmlns="http://www.w3.org/2000/svg" width="20" height="16" viewBox="0 0 20 16" id="svg-1"><defs id="defs-2"><style id="style-3">
	.cls-1 { fill-rule: evenodd; }
</style></defs><path id="mail.svg" class="cls-1" d="M1229.37 398.566a.63.63.0 0 1-.74.0l-9.32-6.491a.208.208.0 0 0-.31.211v9.859a1.729 1.729.0 0 0 1.57 1.855h16.86a1.729 1.729.0 0 0 1.57-1.855v-9.859a.208.208.0 0 0-.31-.211zm.04-2.034 9.48-6.606a.241.241.0 0 0 .1-.227 1.7 1.7.0 0 0-1.56-1.7h-16.86a1.7 1.7.0 0 0-1.56 1.7.241.241.0 0 0 .1.227l9.48 6.606A.7.7.0 0 0 1229.41 396.532z" transform="translate(-1219 -388)" fill="#de3e46" fill-opacity="1" type="solidColor"></path></svg>