<svg xmlns="http://www.w3.org/2000/svg" width="25" height="25" viewBox="0 0 25 25" id="svg-1"><defs id="defs-2"><style id="style-3">
	.cls-1 { fill-rule: evenodd; }
</style></defs><path id="phone.svg" class="cls-1" d="M1189 392.789a6.229 6.229.0 0 1 .66 2.8.97.97.0 0 0 .98.956h0a.971.971.0 0 0 .99-.955 8.091 8.091.0 0 0-.86-3.633 8.439 8.439.0 0 0-3.18-3.441 8.781 8.781.0 0 0-4.44-1.265.955.955.0 1 0-.02 1.91A6.6 6.6.0 0 1 1189 392.789zm5.7-2.684a12.678 12.678.0 0 0-4.82-5.209 13.244 13.244.0 0 0-6.73-1.9h-.01a.956.956.0 1 0-.01 1.911 10.949 10.949.0 0 1 9.8 6.027 10.1 10.1.0 0 1 1.1 4.651.973.973.0 0 0 .99.956h0a.969.969.0 0 0 .98-.955A12.1 12.1.0 0 0 1194.7 390.105zm-3.31 9.907a1.878 1.878.0 0 0-2.39-.256l-2.09 1.3c-.42-.171-1.84-.938-5.02-4.247-3.19-3.328-3.87-4.743-4.01-5.154l1.48-1.936a1.76 1.76.0 0 0-.09-2.341l-3.26-3.391a1.953 1.953.0 0 0-2.89.1l-.91 1.084a5.027 5.027.0 0 0-1.21 3.438 10.149 10.149.0 0 0 .99 3.981 30.069 30.069.0 0 0 5.74 8 34.919 34.919.0 0 0 5.99 5.068 12.189 12.189.0 0 0 6.35 2.341 5.033 5.033.0 0 0 3.11-1l1.17-.8a1.84 1.84.0 0 0 .8-1.333 1.812 1.812.0 0 0-.5-1.464z" transform="translate(-1171 -383)" fill="#de3e46" fill-opacity="1" type="solidColor"></path></svg>